<?xml version="1.0" encoding="UTF-8" standalone="no"?>
<!-- Created with Inkscape (http://www.inkscape.org/) -->

<svg
   width="2252.1768"
   height="97.99939"
   viewBox="0 0 595.88843 25.929006"
   version="1.1"
   id="svg5"
   inkscape:version="1.1.2 (0a00cf5339, 2022-02-04)"
   sodipodi:docname="sketch-header.svg"
   xmlns:inkscape="http://www.inkscape.org/namespaces/inkscape"
   xmlns:sodipodi="http://sodipodi.sourceforge.net/DTD/sodipodi-0.dtd"
   xmlns="http://www.w3.org/2000/svg"
   xmlns:svg="http://www.w3.org/2000/svg">
  <sodipodi:namedview
     id="namedview7"
     pagecolor="#ffffff"
     bordercolor="#666666"
     borderopacity="1.0"
     inkscape:pageshadow="2"
     inkscape:pageopacity="0.0"
     inkscape:pagecheckerboard="false"
     inkscape:document-units="mm"
     showgrid="true"
     showguides="true"
     inkscape:guide-bbox="true"
     units="px"
     width="1000px"
     inkscape:zoom="1"
     inkscape:cx="1105"
     inkscape:cy="34.5"
     inkscape:window-width="3840"
     inkscape:window-height="2135"
     inkscape:window-x="0"
     inkscape:window-y="0"
     inkscape:window-maximized="1"
     inkscape:current-layer="layer1"
     showborder="true"
     fit-margin-top="0"
     fit-margin-left="0"
     fit-margin-right="0"
     fit-margin-bottom="0"
     inkscape:showpageshadow="false">
    <inkscape:grid
       type="xygrid"
       id="grid9703"
       originx="86.857101"
       units="mm"
       originy="-27.651065" />
  </sodipodi:namedview>
  <defs
     id="defs2" />
  <g
     inkscape:label="Layer 1"
     inkscape:groupmode="layer"
     id="layer1"
     transform="translate(86.88356,-27.651065)">
    <path
       style="fill:none;stroke:#ffcc00;stroke-width:1.50124;stroke-linecap:butt;stroke-linejoin:miter;stroke-miterlimit:4;stroke-dasharray:none;stroke-opacity:1"
       d="m 30.665208,32.513873 56.885417,0.108916 V 29.633333 L 98.381314,40.715956 87.553565,51.717441 V 48.724349 L 30.665208,48.615433"
       id="path1338"
       sodipodi:nodetypes="ccccccc" />
    <text
       xml:space="preserve"
       style="font-style:normal;font-variant:normal;font-weight:600;font-stretch:normal;font-size:8.46667px;line-height:1.25;font-family:Lato;-inkscape-font-specification:'Lato, Semi-Bold';font-variant-ligatures:normal;font-variant-caps:normal;font-variant-numeric:normal;font-variant-east-asian:normal;stroke-width:0.264583"
       x="38.176754"
       y="42.911686"
       id="text11107"><tspan
         sodipodi:role="line"
         style="font-style:normal;font-variant:normal;font-weight:600;font-stretch:normal;font-size:8.46667px;font-family:Lato;-inkscape-font-specification:'Lato, Semi-Bold';font-variant-ligatures:normal;font-variant-caps:normal;font-variant-numeric:normal;font-variant-east-asian:normal;stroke-width:0.264583"
         x="38.176754"
         y="42.911686"
         id="tspan11109">Escape Game</tspan></text>
    <path
       style="fill:none;stroke:#ffcc00;stroke-width:1.50124;stroke-linecap:butt;stroke-linejoin:miter;stroke-miterlimit:4;stroke-dasharray:none;stroke-opacity:1"
       d="m 99.192292,32.54375 52.916648,0.108916 V 29.66321 l 10.83069,11.082623 -10.82775,11.001485 V 48.754226 L 99.192292,48.64531"
       id="path1338-8"
       sodipodi:nodetypes="ccccccc" />
    <text
       xml:space="preserve"
       style="font-style:normal;font-variant:normal;font-weight:600;font-stretch:normal;font-size:8.46667px;line-height:1.25;font-family:Lato;-inkscape-font-specification:'Lato, Semi-Bold';font-variant-ligatures:normal;font-variant-caps:normal;font-variant-numeric:normal;font-variant-east-asian:normal;stroke-width:0.264583"
       x="106.66766"
       y="42.941563"
       id="text11107-6"><tspan
         sodipodi:role="line"
         style="font-style:normal;font-variant:normal;font-weight:600;font-stretch:normal;font-size:8.46667px;font-family:Lato;-inkscape-font-specification:'Lato, Semi-Bold';font-variant-ligatures:normal;font-variant-caps:normal;font-variant-numeric:normal;font-variant-east-asian:normal;stroke-width:0.264583"
         x="106.66766"
         y="42.941563"
         id="tspan11109-8">Interest Test</tspan></text>
    <path
       style="fill:none;stroke:#a2ba1c;stroke-width:1.50124;stroke-linecap:butt;stroke-linejoin:miter;stroke-miterlimit:4;stroke-dasharray:none;stroke-opacity:1"
       d="m 233.07129,32.373639 46.29915,0.108916 v -2.989456 l 10.83069,11.082623 -10.82775,11.001485 v -2.993092 l -46.30209,-0.108916"
       id="path1338-8-3"
       sodipodi:nodetypes="ccccccc" />
    <text
       xml:space="preserve"
       style="font-style:normal;font-variant:normal;font-weight:600;font-stretch:normal;font-size:8.46667px;line-height:1.25;font-family:Lato;-inkscape-font-specification:'Lato, Semi-Bold';font-variant-ligatures:normal;font-variant-caps:normal;font-variant-numeric:normal;font-variant-east-asian:normal;stroke-width:0.264583"
       x="240.01974"
       y="42.77145"
       id="text11107-6-8"><tspan
         sodipodi:role="line"
         style="font-style:normal;font-variant:normal;font-weight:600;font-stretch:normal;font-size:8.46667px;font-family:Lato;-inkscape-font-specification:'Lato, Semi-Bold';font-variant-ligatures:normal;font-variant-caps:normal;font-variant-numeric:normal;font-variant-east-asian:normal;stroke-width:0.264583"
         x="240.01974"
         y="42.77145"
         id="tspan11109-8-3">E-Learning</tspan></text>
    <path
       style="fill:none;stroke:#2382c3;stroke-width:1.50124;stroke-linecap:butt;stroke-linejoin:miter;stroke-miterlimit:4;stroke-dasharray:none;stroke-opacity:1"
       d="m 291.27982,32.54375 111.91607,0.108916 V 29.66321 l 10.83069,11.082623 -10.82775,11.001485 V 48.754226 L 291.27982,48.64531"
       id="path1338-8-3-2"
       sodipodi:nodetypes="ccccccc" />
    <text
       xml:space="preserve"
       style="font-style:normal;font-variant:normal;font-weight:600;font-stretch:normal;font-size:8.46667px;line-height:1.25;font-family:Lato;-inkscape-font-specification:'Lato, Semi-Bold';font-variant-ligatures:normal;font-variant-caps:normal;font-variant-numeric:normal;font-variant-east-asian:normal;stroke-width:0.264583"
       x="298.22839"
       y="42.941563"
       id="text11107-6-8-6"><tspan
         sodipodi:role="line"
         style="font-style:normal;font-variant:normal;font-weight:600;font-stretch:normal;font-size:8.46667px;font-family:Lato;-inkscape-font-specification:'Lato, Semi-Bold';font-variant-ligatures:normal;font-variant-caps:normal;font-variant-numeric:normal;font-variant-east-asian:normal;stroke-width:0.264583"
         x="298.22839"
         y="42.941563"
         id="tspan11109-8-3-5">Blended Remote Internships</tspan></text>
    <path
       style="fill:none;stroke:#ea5b0c;stroke-width:1.50124;stroke-linecap:butt;stroke-linejoin:miter;stroke-miterlimit:4;stroke-dasharray:none;stroke-opacity:1"
       d="m 415.10479,32.54375 82.01806,0.108916 V 29.66321 l 10.83069,11.082623 -10.82775,11.001485 v -2.993092 l -82.021,-0.108916"
       id="path1338-8-3-2-7"
       sodipodi:nodetypes="ccccccc" />
    <text
       xml:space="preserve"
       style="font-style:normal;font-variant:normal;font-weight:600;font-stretch:normal;font-size:8.46667px;line-height:1.25;font-family:Lato;-inkscape-font-specification:'Lato, Semi-Bold';font-variant-ligatures:normal;font-variant-caps:normal;font-variant-numeric:normal;font-variant-east-asian:normal;stroke-width:0.264583"
       x="422.31796"
       y="43.470726"
       id="text11107-6-8-6-9"><tspan
         sodipodi:role="line"
         style="font-style:normal;font-variant:normal;font-weight:600;font-stretch:normal;font-size:8.46667px;font-family:Lato;-inkscape-font-specification:'Lato, Semi-Bold';font-variant-ligatures:normal;font-variant-caps:normal;font-variant-numeric:normal;font-variant-east-asian:normal;stroke-width:0.264583"
         x="422.31796"
         y="43.470726"
         id="tspan11109-8-3-5-6">Internship Exchange</tspan></text>
    <g
       id="g53014"
       transform="matrix(0.31418768,0,0,0.31418768,-88.579639,26.668496)">
      <g
         transform="translate(55.825,67.247)"
         aria-label="ITonboard"
         id="g52974">
        <path
           d="M 8.2069,0 Q 7.2032,0 6.5537,-0.64947 5.90423,-1.29894 5.90423,-2.30267 v -41.507 q 0,-1.0037 0.64947,-1.6532 0.64947,-0.64947 1.6532,-0.64947 1.00373,0 1.6532,0.64947 0.64947,0.64947 0.64947,1.6532 v 41.507 q 0,1.0037 -0.64947,1.6532 Q 9.21063,0 8.2069,0 Z"
           id="path52956" />
        <path
           d="m 33.721,0 q -0.94468,0 -1.6532,-0.64947 -0.64947,-0.70851 -0.64947,-1.6532 v -43.81 h 4.6053 v 43.81 q 0,0.94468 -0.64947,1.6532 Q 34.72469,0 33.72096,0 Z M 17.425,-41.92 q -0.94468,0 -1.5351,-0.59042 -0.59042,-0.59042 -0.59042,-1.4761 0,-0.94468 0.59042,-1.5351 0.59042,-0.59042 1.5351,-0.59042 h 32.651 q 0.94468,0 1.5351,0.59042 0.59042,0.59042 0.59042,1.5351 0,0.88564 -0.59042,1.4761 -0.59042,0.59046 -1.5351,0.59042 z"
           id="path52958" />
        <path
           d="m 62.246,0.29521 q -4.7234,0 -8.4431,-2.1255 -3.7197,-2.1255 -5.8452,-5.8452 -2.1255,-3.7197 -2.1255,-8.4431 0,-4.7824 2.1255,-8.5021 2.1255,-3.7197 5.8452,-5.8452 3.7197,-2.1255 8.4431,-2.1255 4.7234,0 8.384,2.1255 3.7197,2.1255 5.8452,5.8452 2.1255,3.7197 2.1846,8.5021 0,4.7234 -2.1846,8.4431 -2.1255,3.7197 -5.8452,5.8452 -3.6606,2.1255 -8.384,2.1255 z m 0,-4.133 q 3.4245,0 6.1404,-1.5941 2.716,-1.5941 4.2511,-4.3691 1.5351,-2.775 1.5351,-6.3175 0,-3.5425 -1.5351,-6.3175 -1.5351,-2.834 -4.2511,-4.4282 -2.716,-1.5941 -6.1404,-1.5941 -3.4244,0 -6.1404,1.5941 -2.716,1.5941 -4.3101,4.4282 -1.5351,2.775 -1.5351,6.3175 0,3.5425 1.5351,6.3175 1.5941,2.775 4.3101,4.3691 2.716,1.5941 6.1404,1.5941 z"
           id="path52960" />
        <path
           d="m 113.21,0 q -1.0037,0 -1.6532,-0.64947 -0.64946,-0.64947 -0.64946,-1.5941 v -15.351 q 0,-3.6606 -1.417,-6.0223 -1.358,-2.3617 -3.7787,-3.5426 -2.3617,-1.1808 -5.3729,-1.1808 -2.8931,0 -5.2548,1.1218 -2.3027,1.1218 -3.6606,3.0702 -1.358,1.9484 -1.358,4.4282 h -3.2473 q 0.11808,-3.7197 2.0074,-6.6128 1.8894,-2.9521 5.0186,-4.6053 3.1293,-1.7122 6.967,-1.7122 4.192,0 7.4984,1.7713 3.3064,1.7122 5.1957,5.0777 1.9484,3.3654 1.9484,8.2069 v 15.351 q 0,0.94468 -0.64947,1.5941 Q 114.1546,1e-4 113.20987,1e-4 Z M 87.822,0 q -1.0628,0 -1.7122,-0.59042 -0.59042,-0.64947 -0.59042,-1.6532 v -27.75 q 0,-1.0628 0.59042,-1.6532 0.64947,-0.64947 1.7122,-0.64947 1.0037,0 1.5941,0.64947 0.64947,0.59042 0.64947,1.6532 v 27.75 q 0,1.0037 -0.64947,1.6532 Q 88.82568,0 87.822,0 Z"
           id="path52962" />
        <path
           d="m 139.84,0.29521 q -4.6053,0 -8.325,-2.1255 -3.6606,-2.1255 -5.8452,-5.7862 -2.1255,-3.7197 -2.1846,-8.325 v -27.868 q 0,-1.0628 0.59042,-1.6532 0.64947,-0.64947 1.7122,-0.64947 1.0037,0 1.5942,0.64947 0.64947,0.59042 0.64947,1.6532 v 17.358 q 1.9484,-2.775 5.1367,-4.4282 3.2473,-1.7122 7.2032,-1.7122 4.5463,0 8.1479,2.1846 3.6016,2.1255 5.6681,5.8452 2.1255,3.7197 2.1255,8.384 0,4.7234 -2.1846,8.4431 -2.1255,3.7197 -5.8452,5.9042 -3.7197,2.1255 -8.4431,2.1255 z m 0,-4.133 q 3.4245,0 6.1404,-1.5941 2.716,-1.6532 4.2511,-4.4282 1.5942,-2.775 1.5942,-6.3175 0,-3.4835 -1.5942,-6.2585 -1.5351,-2.834 -4.2511,-4.4282 -2.716,-1.5941 -6.1404,-1.5941 -3.3654,0 -6.0814,1.5941 -2.716,1.5941 -4.2511,4.4282 -1.5351,2.775 -1.5351,6.2585 0,3.5426 1.5351,6.3175 1.5351,2.775 4.2511,4.4282 2.716,1.5941 6.0814,1.5941 z"
           id="path52964" />
        <path
           d="m 177.93,0.29521 q -4.7234,0 -8.4431,-2.1255 -3.7197,-2.1255 -5.8452,-5.8452 -2.1255,-3.7197 -2.1255,-8.4431 0,-4.7824 2.1255,-8.5021 2.1255,-3.7197 5.8452,-5.8452 3.7197,-2.1255 8.4431,-2.1255 4.7234,0 8.384,2.1255 3.7197,2.1255 5.8452,5.8452 2.1255,3.7197 2.1846,8.5021 0,4.7234 -2.1846,8.4431 -2.1255,3.7197 -5.8452,5.8452 -3.6606,2.1255 -8.384,2.1255 z m 0,-4.133 q 3.4245,0 6.1404,-1.5941 2.716,-1.5941 4.2511,-4.3691 1.5351,-2.775 1.5351,-6.3175 0,-3.5425 -1.5351,-6.3175 -1.5351,-2.834 -4.2511,-4.4282 -2.716,-1.5941 -6.1404,-1.5941 -3.4245,0 -6.1404,1.5941 -2.716,1.5941 -4.3101,4.4282 -1.5351,2.775 -1.5351,6.3175 0,3.5425 1.5351,6.3175 1.5941,2.775 4.3101,4.3691 2.716,1.5941 6.1404,1.5941 z"
           id="path52966" />
        <path
           d="m 215.43,0.29521 q -4.5463,0 -8.1479,-2.1255 -3.6016,-2.1846 -5.7271,-5.9042 -2.0665,-3.7197 -2.0665,-8.384 0,-4.7234 2.1255,-8.4431 2.1846,-3.7197 5.9042,-5.8452 3.7197,-2.1846 8.384,-2.1846 4.6643,0 8.325,2.1846 3.7197,2.1255 5.8452,5.8452 2.1846,3.7197 2.2436,8.4431 l -1.8303,1.417 q 0,4.2511 -2.0074,7.6755 -1.9484,3.3654 -5.3729,5.3729 -3.3654,1.9484 -7.6755,1.9484 z m 0.47234,-4.133 q 3.4245,0 6.0814,-1.5941 2.716,-1.5941 4.2511,-4.3691 1.5941,-2.834 1.5941,-6.3175 0,-3.5426 -1.5941,-6.3175 -1.5351,-2.775 -4.2511,-4.3691 -2.6569,-1.6532 -6.0814,-1.6532 -3.3654,0 -6.0814,1.6532 -2.716,1.5941 -4.3101,4.3691 -1.5942,2.775 -1.5942,6.3175 0,3.4835 1.5942,6.3175 1.5942,2.775 4.3101,4.3691 2.716,1.5941 6.0814,1.5941 z m 14.111,3.8378 q -1.0037,0 -1.6532,-0.59042 -0.64947,-0.64947 -0.64947,-1.6532 v -10.096 l 1.1218,-4.6644 3.4835,0.88564 v 13.875 q 0,1.0037 -0.64946,1.6532 -0.64947,0.59042 -1.6532,0.59042 z"
           id="path52968" />
        <path
           d="m 241.06,-19.897 q 0.17713,-3.6606 1.8894,-6.5537 1.7713,-2.8931 4.5463,-4.5463 2.834,-1.6532 6.2585,-1.6532 2.716,0 4.192,0.76755 1.4761,0.76755 1.1218,2.2436 -0.23617,0.88564 -0.82659,1.1808 -0.53138,0.29521 -1.358,0.23617 -0.76755,-0.05904 -1.7713,-0.11808 -3.3064,-0.29521 -5.9042,0.70851 -2.5388,0.94468 -4.0739,2.9521 -1.4761,2.0074 -1.4761,4.7824 z M 241.41426,0 q -1.0628,0 -1.6532,-0.59042 -0.59043,-0.59042 -0.59043,-1.6532 v -27.809 q 0,-1.0628 0.59043,-1.6532 0.59042,-0.59042 1.6532,-0.59042 1.0628,0 1.6532,0.59042 0.59042,0.59042 0.59042,1.6532 v 27.809 q 0,1.0628 -0.59042,1.6532 Q 242.47703,0 241.41426,0 Z"
           id="path52970" />
        <path
           d="m 276.55,0.29521 q -4.6644,0 -8.384,-2.1255 -3.7197,-2.1846 -5.9042,-5.9042 -2.1255,-3.7197 -2.1255,-8.4431 0,-4.6644 2.0665,-8.384 2.1255,-3.7197 5.7271,-5.8452 3.6016,-2.1846 8.1479,-2.1846 3.9558,0 7.1442,1.7122 3.1883,1.6532 5.1367,4.4282 v -17.358 q 0,-1.0628 0.64947,-1.6532 0.64947,-0.64947 1.6532,-0.64947 1.00373,0 1.6532,0.64947 0.64947,0.59042 0.64947,1.6532 v 27.868 q -0.11809,4.6053 -2.3027,8.325 -2.1255,3.6606 -5.8452,5.7862 -3.6606,2.1255 -8.266,2.1255 z m 0,-4.133 q 3.4245,0 6.0814,-1.5941 2.716,-1.6532 4.2511,-4.4282 1.5942,-2.775 1.5942,-6.3175 0,-3.4835 -1.5942,-6.2585 -1.5351,-2.834 -4.2511,-4.4282 -2.6569,-1.5941 -6.0814,-1.5941 -3.3654,0 -6.0814,1.5941 -2.716,1.5941 -4.3101,4.4282 -1.5941,2.775 -1.5941,6.2585 0,3.5426 1.5941,6.3175 1.5942,2.775 4.3101,4.4282 2.716,1.5941 6.0814,1.5941 z"
           id="path52972" />
      </g>
      <line
         class="st4"
         x1="7.5"
         x2="49.5"
         y1="65.400002"
         y2="23.6"
         id="line52976" />
      <line
         class="st5"
         x1="45.299999"
         x2="37.5"
         y1="57.5"
         y2="65.400002"
         id="line52978" />
      <line
         class="st6"
         x1="44.700001"
         x2="22.9"
         y1="42.900002"
         y2="64.800003"
         id="line52980" />
      <line
         class="st4"
         x1="49.5"
         x2="49.5"
         y1="23.6"
         y2="31.6"
         id="line52982" />
      <line
         class="st7"
         x1="7.4000001"
         x2="15.3"
         y1="35.700001"
         y2="27.799999"
         id="line52984" />
      <line
         class="st8"
         x1="8.1999998"
         x2="30.1"
         y1="50.099998"
         y2="28.299999"
         id="line52986" />
      <line
         class="st4"
         x1="49.5"
         x2="41.5"
         y1="23.6"
         y2="23.6"
         id="line52988" />
    </g>
    <path
       style="fill:none;stroke:#b92864;stroke-width:1.50124;stroke-linecap:butt;stroke-linejoin:miter;stroke-miterlimit:4;stroke-dasharray:none;stroke-opacity:1"
       d="m 164.01521,32.54375 57.15,0.108916 V 29.66321 L 231.9959,40.745833 221.16815,51.747318 V 48.754226 L 164.01521,48.64531"
       id="path1338-8-7"
       sodipodi:nodetypes="ccccccc" />
    <text
       xml:space="preserve"
       style="font-style:normal;font-variant:normal;font-weight:600;font-stretch:normal;font-size:8.46667px;line-height:1.25;font-family:Lato;-inkscape-font-specification:'Lato, Semi-Bold';font-variant-ligatures:normal;font-variant-caps:normal;font-variant-numeric:normal;font-variant-east-asian:normal;stroke-width:0.264583"
       x="171.49059"
       y="42.941559"
       id="text11107-6-3"><tspan
         sodipodi:role="line"
         style="font-style:normal;font-variant:normal;font-weight:600;font-stretch:normal;font-size:8.46667px;font-family:Lato;-inkscape-font-specification:'Lato, Semi-Bold';font-variant-ligatures:normal;font-variant-caps:normal;font-variant-numeric:normal;font-variant-east-asian:normal;stroke-width:0.264583"
         x="171.49059"
         y="42.941559"
         id="tspan11109-8-2">Project Week</tspan></text>
  </g>
  <style
     type="text/css"
     id="style52954">
	.st0{font-family:'Comfortaa-Bold';}
	.st1{font-size:59.0425px;}
	.st2{letter-spacing:-2;}
	.st3{font-family:'Comfortaa-Light';}
	.st4{fill:none;stroke:#2580C3;stroke-width:4.0034;stroke-linecap:round;stroke-linejoin:round;stroke-miterlimit:10;}
	.st5{fill:none;stroke:#A1B91C;stroke-width:4.0034;stroke-linecap:round;stroke-linejoin:round;stroke-miterlimit:10;}
	.st6{fill:none;stroke:#E95A0C;stroke-width:4.0034;stroke-linecap:round;stroke-linejoin:round;stroke-miterlimit:10;}
	.st7{fill:none;stroke:#B8256A;stroke-width:4.0034;stroke-linecap:round;stroke-linejoin:round;stroke-miterlimit:10;}
	.st8{fill:none;stroke:#FFCB00;stroke-width:4.0034;stroke-linecap:round;stroke-linejoin:round;stroke-miterlimit:10;}
</style>
</svg>
