<?xml version="1.0" encoding="UTF-8"?>
<svg width="191px" height="145px" viewBox="0 0 191 145" version="1.1" xmlns="http://www.w3.org/2000/svg" xmlns:xlink="http://www.w3.org/1999/xlink">
    <!-- Generator: Sketch 52.6 (67491) - http://www.bohemiancoding.com/sketch -->
    <title>Group 2</title>
    <desc>Created with Sketch.</desc>
    <g id="Page-1" stroke="none" stroke-width="1" fill="none" fill-rule="evenodd">
        <g id="Leitfaden-1" transform="translate(-242.000000, -2757.000000)">
            <g id="Group-2" transform="translate(238.000000, 2757.000000)">
                <rect id="Rectangle-Copy-13" fill="#FECE27" fill-rule="nonzero" opacity="0.7" x="48" y="0" width="147" height="145"></rect>
                <path d="M25.0918022,80.032304 C23.2877931,80.032304 21.7913081,79.3968104 20.6023022,78.125804 C19.4132962,76.8547977 18.8188022,75.3993122 18.8188022,73.759304 L18.8188022,13.120304 C18.8188022,11.316295 19.4132962,9.79931016 20.6023022,8.56930401 C21.7913081,7.33929786 23.2877931,6.72430401 25.0918022,6.72430401 C26.8958112,6.72430401 28.3922962,7.33929786 29.5813022,8.56930401 C30.7703081,9.79931016 31.3648022,11.316295 31.3648022,13.120304 L31.3648022,73.759304 C31.3648022,75.4813126 30.7293085,76.9572979 29.4583022,78.187304 C28.1872958,79.4173102 26.7318104,80.032304 25.0918022,80.032304 Z M25.0918022,102.787304 C22.7957907,102.787304 20.8073106,101.967312 19.1263022,100.327304 C17.4452938,98.6872958 16.6048022,96.6783159 16.6048022,94.300304 C16.6048022,91.9222921 17.4452938,89.8928124 19.1263022,88.211804 C20.8073106,86.5307956 22.7957907,85.690304 25.0918022,85.690304 C27.469814,85.690304 29.478794,86.5307956 31.1188022,88.211804 C32.7588104,89.8928124 33.5788022,91.9222921 33.5788022,94.300304 C33.5788022,96.6783159 32.7383106,98.6872958 31.0573022,100.327304 C29.3762938,101.967312 27.3878136,102.787304 25.0918022,102.787304 Z" id="!-copy" fill="#0595D2" transform="translate(25.091802, 54.755804) rotate(-20.000000) translate(-25.091802, -54.755804) "></path>
            </g>
        </g>
    </g>
</svg>