<?xml version="1.0" encoding="UTF-8"?>
<svg width="58px" height="49px" viewBox="0 0 58 49" version="1.1" xmlns="http://www.w3.org/2000/svg" xmlns:xlink="http://www.w3.org/1999/xlink">
    <!-- Generator: Sketch 52.6 (67491) - http://www.bohemiancoding.com/sketch -->
    <title>Group 2</title>
    <desc>Created with Sketch.</desc>
    <g id="Page-1" stroke="none" stroke-width="1" fill="none" fill-rule="evenodd">
        <g id="Leitfaden-2" transform="translate(-383.000000, -1832.000000)">
            <g id="Group-2" transform="translate(384.000000, 1832.000000)">
                <circle id="Oval-Copy" stroke="#0595D2" fill-rule="nonzero" cx="19.5" cy="28.5" r="19.5"></circle>
                <path d="M10.7633242,28.3388272 C12.1793242,29.9448272 17.6233242,35.9168272 20.2963242,35.9958272 C22.9693242,36.0748272 34.0403242,23.8338272 40.1793242,18.8078272 C46.2593242,13.8288272 58.0083242,7.7198272 58.5853242,7.0178272 C59.3103242,6.1368272 59.1613242,5.3368272 58.3283242,4.3788272 C57.6773242,3.6308272 56.2073242,4.2248272 55.4163242,4.5518272 C54.7833242,4.8138272 44.1223242,9.8238272 37.3033242,15.4318272 C30.7793242,20.7968272 23.0683242,30.2888272 20.6193242,30.5278272 C19.3233242,30.6538272 15.7763242,27.0748272 13.9633242,24.8768272 C12.1503242,22.6798272 9.40732419,19.7788272 8.68932419,19.2388272 C7.86432419,18.6178272 6.73032419,18.1538272 5.71332419,19.0068272 C5.20432419,19.4328272 4.96432419,20.2378272 5.38632419,21.4008272 C5.71732419,22.3118272 9.34732419,26.7328272 10.7633242,28.3388272" id="Fill-1-Copy" fill="#0595D2" transform="translate(32.110268, 20.006901) rotate(-9.000000) translate(-32.110268, -20.006901) "></path>
            </g>
        </g>
    </g>
</svg>